<svg width="371" height="46" viewBox="0 0 371 46" fill="none" xmlns="http://www.w3.org/2000/svg">
<path d="M21.12 45V23.1H33.6V45H21.12ZM1.46516e-05 -3.57628e-06H13.8L30.12 20.76H24.54L40.8 -3.57628e-06H54.6L31.32 29.58L23.34 29.7L1.46516e-05 -3.57628e-06ZM70.4311 24.9C70.4311 26.94 70.8111 28.72 71.5711 30.24C72.3711 31.72 73.5311 32.86 75.0511 33.66C76.6111 34.46 78.5111 34.86 80.7511 34.86C83.0311 34.86 84.9311 34.46 86.4511 33.66C87.9711 32.86 89.1111 31.72 89.8711 30.24C90.6311 28.72 91.0111 26.94 91.0111 24.9V-3.57628e-06H103.491V25.5C103.491 29.62 102.531 33.22 100.611 36.3C98.7311 39.34 96.0911 41.72 92.6911 43.44C89.2911 45.12 85.3111 45.96 80.7511 45.96C76.2311 45.96 72.2511 45.12 68.8111 43.44C65.4111 41.72 62.7511 39.34 60.8311 36.3C58.9511 33.22 58.0111 29.62 58.0111 25.5V-3.57628e-06H70.4311V24.9ZM123.107 -3.57628e-06V39.48L117.527 33.96H151.187V45H110.687V-3.57628e-06H123.107ZM168.327 -3.57628e-06V39.48L162.747 33.96H196.407V45H155.907V-3.57628e-06H168.327ZM205.928 45.6C204.648 45.6 203.468 45.3 202.388 44.7C201.348 44.1 200.528 43.28 199.928 42.24C199.328 41.16 199.028 39.98 199.028 38.7C199.028 37.42 199.328 36.26 199.928 35.22C200.528 34.18 201.348 33.36 202.388 32.76C203.468 32.12 204.648 31.8 205.928 31.8C207.248 31.8 208.428 32.12 209.468 32.76C210.508 33.36 211.328 34.18 211.928 35.22C212.528 36.26 212.828 37.42 212.828 38.7C212.828 39.98 212.528 41.16 211.928 42.24C211.328 43.28 210.508 44.1 209.468 44.7C208.428 45.3 207.248 45.6 205.928 45.6ZM240.956 -3.57628e-06C246.276 -3.57628e-06 250.936 0.939997 254.936 2.82C258.976 4.66 262.096 7.28 264.296 10.68C266.536 14.04 267.656 17.98 267.656 22.5C267.656 27.02 266.536 30.98 264.296 34.38C262.096 37.74 258.976 40.36 254.936 42.24C250.936 44.08 246.276 45 240.956 45H218.516V-3.57628e-06H240.956ZM230.876 39.78L224.936 33.96H241.916C244.596 33.96 246.916 33.5 248.876 32.58C250.876 31.62 252.416 30.28 253.496 28.56C254.576 26.84 255.116 24.82 255.116 22.5C255.116 20.14 254.576 18.12 253.496 16.44C252.416 14.72 250.876 13.4 248.876 12.48C246.916 11.52 244.596 11.04 241.916 11.04H224.936L230.876 5.22V39.78ZM311.395 18V27H278.455V18H311.395ZM286.915 22.5L283.975 40.56L278.935 34.92H313.375V45H271.555L274.975 22.5L271.555 -3.57628e-06H313.075V10.08H278.935L283.975 4.44L286.915 22.5ZM345.616 39.42H340.336L357.676 -3.57628e-06H370.816L349.876 45H335.776L314.836 -3.57628e-06H328.156L345.616 39.42Z" fill="white"/>
</svg>
